<svg width="211" height="132" viewBox="0 0 211 132" fill="none" xmlns="http://www.w3.org/2000/svg">
<path d="M48.8063 54.4734H16.2303C15.2063 54.4734 14.4596 54.2388 13.9903 53.7694C13.5209 53.3001 13.2863 52.5534 13.2863 51.5294V10.0574C13.2863 9.50275 13.3503 9.03342 13.4783 8.64942C13.6489 8.26542 13.8836 7.94542 14.1823 7.68942L22.4383 0.713421C22.6516 0.542754 22.9289 0.414753 23.2703 0.329418C23.6543 0.20142 24.0596 0.137421 24.4863 0.137421H34.4063C35.4303 0.137421 36.1769 0.372087 36.6463 0.841419C37.1156 1.31075 37.3503 2.05742 37.3503 3.08142V29.1294L37.4783 29.0014L45.7343 22.0254C45.9476 21.8548 46.2249 21.7268 46.5662 21.6414C46.9502 21.5134 47.3556 21.4494 47.7823 21.4494H57.0623C58.0863 21.4494 58.8329 21.6841 59.3023 22.1534C59.7716 22.6228 60.0063 23.3694 60.0063 24.3934V44.5534C60.0063 45.1081 59.9209 45.5774 59.7503 45.9614C59.6223 46.3454 59.4089 46.6654 59.1103 46.9214L50.7903 53.8334C50.6196 54.0041 50.3423 54.1534 49.9583 54.2814C49.6169 54.4094 49.2329 54.4734 48.8063 54.4734ZM57.0623 46.8574C57.8729 46.8574 58.4489 46.6868 58.7903 46.3454C59.1743 45.9614 59.3663 45.3641 59.3663 44.5534V24.3934C59.3663 23.5828 59.1743 23.0068 58.7903 22.6654C58.4489 22.2814 57.8729 22.0894 57.0623 22.0894H47.7823C46.9716 22.0894 46.3743 22.2814 45.9903 22.6654C45.6489 23.0068 45.4783 23.5828 45.4783 24.3934V34.7614H36.7103V3.08142C36.7103 2.27075 36.5183 1.69475 36.1343 1.35342C35.7929 0.96942 35.2169 0.77742 34.4063 0.77742H24.4863C23.6756 0.77742 23.0783 0.96942 22.6943 1.35342C22.3529 1.69475 22.1823 2.27075 22.1823 3.08142V44.5534C22.1823 45.3641 22.3529 45.9614 22.6943 46.3454C23.0783 46.6868 23.6756 46.8574 24.4863 46.8574H57.0623ZM29.1583 41.0974V6.53742H29.7983V40.4574H52.0703V27.8494H52.7103V41.0974H29.1583ZM93.3453 54.4734H66.0813C65.0573 54.4734 64.3106 54.2388 63.8413 53.7694C63.3719 53.3001 63.1373 52.5534 63.1373 51.5294V43.9134C63.1373 43.3588 63.2013 42.8894 63.3293 42.5054C63.4999 42.1214 63.7346 41.8014 64.0333 41.5454L71.7773 35.0174V20.7454H66.0813C65.0573 20.7454 64.3106 20.5108 63.8413 20.0414C63.3719 19.5721 63.1373 18.8254 63.1373 17.8014V10.0574C63.1373 9.50275 63.2013 9.03342 63.3293 8.64942C63.4999 8.26542 63.7346 7.94542 64.0333 7.68942L72.2893 0.713421C72.5026 0.542754 72.7799 0.414753 73.1213 0.329418C73.5053 0.20142 73.9106 0.137421 74.3373 0.137421H101.601C102.625 0.137421 103.372 0.372087 103.841 0.841419C104.311 1.31075 104.545 2.05742 104.545 3.08142V10.8254C104.545 11.3801 104.46 11.8494 104.289 12.2334C104.161 12.6174 103.948 12.9374 103.649 13.1934L96.0333 19.5934V33.9934H101.601C102.625 33.9934 103.372 34.2281 103.841 34.6974C104.311 35.1668 104.545 35.9134 104.545 36.9374V44.5534C104.545 45.1081 104.46 45.5774 104.289 45.9614C104.161 46.3454 103.948 46.6654 103.649 46.9214L95.3293 53.8334C95.1586 54.0041 94.8813 54.1534 94.4973 54.2814C94.1559 54.4094 93.7719 54.4734 93.3453 54.4734ZM74.3373 46.8574H101.601C102.412 46.8574 102.988 46.6868 103.329 46.3454C103.713 45.9614 103.905 45.3641 103.905 44.5534V36.9374C103.905 36.1268 103.713 35.5508 103.329 35.2094C102.988 34.8254 102.412 34.6334 101.601 34.6334H95.3933V13.1294H101.601C102.412 13.1294 102.988 12.9588 103.329 12.6174C103.713 12.2334 103.905 11.6361 103.905 10.8254V3.08142C103.905 2.27075 103.713 1.69475 103.329 1.35342C102.988 0.96942 102.412 0.77742 101.601 0.77742H74.3373C73.5266 0.77742 72.9293 0.96942 72.5453 1.35342C72.2039 1.69475 72.0333 2.27075 72.0333 3.08142V10.8254C72.0333 11.6361 72.2039 12.2334 72.5453 12.6174C72.9293 12.9588 73.5266 13.1294 74.3373 13.1294H80.6733V34.6334H74.3373C73.5266 34.6334 72.9293 34.8254 72.5453 35.2094C72.2039 35.5508 72.0333 36.1268 72.0333 36.9374V44.5534C72.0333 45.3641 72.2039 45.9614 72.5453 46.3454C72.9293 46.6868 73.5266 46.8574 74.3373 46.8574ZM98.1453 41.0974H77.7933V40.4574H87.7133V7.17742H77.7933V6.53742H98.1453V7.17742H88.3533V40.4574H98.1453V41.0974ZM122.15 54.4734H112.23C111.206 54.4734 110.46 54.2388 109.99 53.7694C109.521 53.3001 109.286 52.5534 109.286 51.5294V10.0574C109.286 9.50275 109.35 9.03342 109.478 8.64942C109.649 8.26542 109.884 7.94542 110.182 7.68942L118.438 0.713421C118.652 0.542754 118.929 0.414753 119.27 0.329418C119.654 0.20142 120.06 0.137421 120.486 0.137421H149.03C150.054 0.137421 150.801 0.372087 151.27 0.841419C151.74 1.31075 151.974 2.05742 151.974 3.08142V10.6974C151.974 11.2521 151.889 11.7214 151.718 12.1054C151.59 12.4894 151.377 12.8094 151.078 13.0654L143.91 19.0174C144.892 19.0174 145.617 19.2521 146.086 19.7214C146.556 20.1908 146.79 20.9374 146.79 21.9614V29.6414C146.79 30.1961 146.705 30.6654 146.534 31.0494C146.406 31.4334 146.193 31.7534 145.894 32.0094L137.574 38.9214C137.404 39.0921 137.126 39.2414 136.742 39.3694C136.401 39.4974 136.017 39.5614 135.59 39.5614H133.35V44.5534C133.35 45.1081 133.265 45.5774 133.094 45.9614C132.966 46.3454 132.753 46.6654 132.454 46.9214L124.134 53.8334C123.964 54.0041 123.686 54.1534 123.302 54.2814C122.961 54.4094 122.577 54.4734 122.15 54.4734ZM130.406 46.8574C131.217 46.8574 131.793 46.6868 132.134 46.3454C132.518 45.9614 132.71 45.3641 132.71 44.5534V31.9454H143.846C144.657 31.9454 145.233 31.7748 145.574 31.4334C145.958 31.0494 146.15 30.4521 146.15 29.6414V21.9614C146.15 21.1508 145.958 20.5748 145.574 20.2334C145.233 19.8494 144.657 19.6574 143.846 19.6574H132.71V13.0014H149.03C149.841 13.0014 150.417 12.8308 150.758 12.4894C151.142 12.1054 151.334 11.5081 151.334 10.6974V3.08142C151.334 2.27075 151.142 1.69475 150.758 1.35342C150.417 0.96942 149.841 0.77742 149.03 0.77742H120.486C119.676 0.77742 119.078 0.96942 118.694 1.35342C118.353 1.69475 118.182 2.27075 118.182 3.08142V44.5534C118.182 45.3641 118.353 45.9614 118.694 46.3454C119.078 46.6868 119.676 46.8574 120.486 46.8574H130.406ZM125.158 41.0974V6.53742H145.574V7.17742H125.798V25.4814H140.39V26.1214H125.798V41.0974H125.158ZM187.864 54.4734H158.168C157.144 54.4734 156.397 54.2388 155.928 53.7694C155.458 53.3001 155.224 52.5534 155.224 51.5294V10.0574C155.224 9.50275 155.288 9.03342 155.416 8.64942C155.586 8.26542 155.821 7.94542 156.12 7.68942L164.376 0.713421C164.589 0.542754 164.866 0.414753 165.208 0.329418C165.592 0.20142 165.997 0.137421 166.424 0.137421H196.12C197.144 0.137421 197.89 0.372087 198.36 0.841419C198.829 1.31075 199.064 2.05742 199.064 3.08142V10.5694C199.064 11.1241 198.978 11.5934 198.808 11.9774C198.68 12.3614 198.466 12.6814 198.168 12.9374L192.664 17.4814C193.09 17.6948 193.389 18.0148 193.56 18.4414C193.773 18.8681 193.88 19.4228 193.88 20.1054V26.9534C193.88 27.5081 193.794 27.9774 193.624 28.3614C193.496 28.7454 193.282 29.0654 192.984 29.3214L187.288 34.1214H196.12C197.144 34.1214 197.89 34.3561 198.36 34.8254C198.829 35.2948 199.064 36.0414 199.064 37.0654V44.5534C199.064 45.1081 198.978 45.5774 198.808 45.9614C198.68 46.3454 198.466 46.6654 198.168 46.9214L189.848 53.8334C189.677 54.0041 189.4 54.1534 189.016 54.2814C188.674 54.4094 188.29 54.4734 187.864 54.4734ZM196.12 46.8574C196.93 46.8574 197.506 46.6868 197.848 46.3454C198.232 45.9614 198.424 45.3641 198.424 44.5534V37.0654C198.424 36.2548 198.232 35.6788 197.848 35.3374C197.506 34.9534 196.93 34.7614 196.12 34.7614H178.456V29.2574H190.936C191.746 29.2574 192.322 29.0868 192.664 28.7454C193.048 28.3614 193.24 27.7641 193.24 26.9534V20.1054C193.24 19.2948 193.048 18.7188 192.664 18.3774C192.322 17.9934 191.746 17.8014 190.936 17.8014H178.456V12.8734H196.12C196.93 12.8734 197.506 12.7028 197.848 12.3614C198.232 11.9774 198.424 11.3801 198.424 10.5694V3.08142C198.424 2.27075 198.232 1.69475 197.848 1.35342C197.506 0.96942 196.93 0.77742 196.12 0.77742H166.424C165.613 0.77742 165.016 0.96942 164.632 1.35342C164.29 1.69475 164.12 2.27075 164.12 3.08142V44.5534C164.12 45.3641 164.29 45.9614 164.632 46.3454C165.016 46.6868 165.613 46.8574 166.424 46.8574H196.12ZM192.664 40.4574V41.0974H171.096V6.53742H192.664V7.17742H171.736V23.2414H187.48V23.8814H171.736V40.4574H192.664ZM37.3138 131.473H17.1538C11.5644 131.473 7.42575 130.023 4.73775 127.121C2.09242 124.22 0.76975 120.465 0.76975 115.857V97.8094C0.76975 95.4628 1.11108 93.4361 1.79375 91.7294C2.47642 90.0228 3.47908 88.5934 4.80175 87.4414L13.0578 80.4654C14.3804 79.3561 16.0658 78.5241 18.1138 77.9694C20.2044 77.4148 22.6364 77.1374 25.4098 77.1374H41.4098C42.4338 77.1374 43.1804 77.3721 43.6498 77.8414C44.1191 78.3108 44.3538 79.0574 44.3538 80.0814V87.8254C44.3538 88.3801 44.2684 88.8494 44.0978 89.2334C43.9698 89.6174 43.7564 89.9374 43.4578 90.1934L35.1378 97.1054C34.9671 97.2761 34.6898 97.4254 34.3058 97.5534C33.9644 97.6814 33.5804 97.7454 33.1538 97.7454H24.8338V106.961C24.8764 106.876 24.9404 106.791 25.0258 106.705C25.1538 106.577 25.2604 106.471 25.3458 106.385L33.6018 99.4094C33.8151 99.2388 34.0924 99.1108 34.4338 99.0254C34.8178 98.8974 35.2231 98.8334 35.6498 98.8334H45.5698C46.5938 98.8334 47.3404 99.0681 47.8098 99.5374C48.2791 100.007 48.5138 100.753 48.5138 101.777V121.553C48.5138 122.108 48.4284 122.577 48.2578 122.961C48.1298 123.345 47.9164 123.665 47.6178 123.921L39.2978 130.833C39.1271 131.004 38.8498 131.153 38.4658 131.281C38.1244 131.409 37.7404 131.473 37.3138 131.473ZM45.5698 123.857C46.3804 123.857 46.9564 123.687 47.2978 123.345C47.6818 122.961 47.8738 122.364 47.8738 121.553V101.777C47.8738 100.967 47.6818 100.391 47.2978 100.049C46.9564 99.6654 46.3804 99.4734 45.5698 99.4734H35.6498C34.8391 99.4734 34.2418 99.6654 33.8577 100.049C33.5164 100.391 33.3458 100.967 33.3458 101.777V111.761H27.1378C26.1564 111.761 25.4098 111.505 24.8978 110.993C24.4284 110.481 24.1938 109.692 24.1938 108.625V93.3294C24.1938 92.2628 24.5138 91.4734 25.1538 90.9614C25.7938 90.4068 26.7751 90.1294 28.0978 90.1294H41.4098C42.2204 90.1294 42.7964 89.9588 43.1378 89.6174C43.5218 89.2334 43.7138 88.6361 43.7138 87.8254V80.0814C43.7138 79.2708 43.5218 78.6948 43.1378 78.3534C42.7964 77.9694 42.2204 77.7774 41.4098 77.7774H25.4098C20.0764 77.7774 16.1084 78.8441 13.5058 80.9774C10.9458 83.1108 9.66575 86.3961 9.66575 90.8334V110.801C9.66575 115.239 10.9458 118.524 13.5058 120.657C16.1084 122.791 20.0764 123.857 25.4098 123.857H45.5698ZM28.1618 118.097C25.8151 118.097 23.8951 117.948 22.4018 117.649C20.9084 117.351 19.7351 116.881 18.8818 116.241C18.0284 115.559 17.4311 114.705 17.0898 113.681C16.7911 112.615 16.6418 111.335 16.6418 109.841V91.9214C16.6418 88.8921 17.3244 86.7374 18.6898 85.4574C20.0551 84.1774 22.7858 83.5374 26.8818 83.5374H37.9538V84.1774H26.8818C23.1271 84.1774 20.5884 84.7748 19.2658 85.9694C17.9431 87.1214 17.2818 89.1054 17.2818 91.9214V109.841C17.2818 112.615 18.0071 114.577 19.4578 115.729C20.9511 116.881 23.8524 117.457 28.1618 117.457H40.2578V105.233H40.8978V118.097H28.1618ZM68.5213 104.465V106.449H93.4813V104.465C93.4813 103.313 93.3746 102.247 93.1613 101.265C92.9906 100.284 92.7559 99.3668 92.4573 98.5134L88.0413 88.0814C87.5719 86.9721 87.0813 86.0548 86.5693 85.3294C86.0573 84.5614 85.2039 84.1774 84.0093 84.1774H77.7373C76.4573 84.1774 75.5613 84.5614 75.0493 85.3294C74.5373 86.0548 74.0679 86.9508 73.6413 88.0174L69.5453 98.5134C69.2466 99.3668 68.9906 100.284 68.7773 101.265C68.6066 102.247 68.5213 103.313 68.5213 104.465ZM78.7613 91.2174C78.9319 90.8334 79.1026 90.5561 79.2733 90.3854C79.4866 90.2148 79.7213 90.1294 79.9773 90.1294H81.5773C81.8333 90.1294 82.0466 90.2148 82.2173 90.3854C82.4306 90.5561 82.6226 90.8334 82.7933 91.2174L85.8013 100.945H75.7533L78.7613 91.2174ZM93.4813 118.097V107.089H68.5213V118.097H67.8813V104.465C67.8813 103.271 67.9666 102.183 68.1373 101.201C68.3506 100.177 68.6279 99.1961 68.9693 98.2574L73.0653 87.7614C73.5346 86.5668 74.0679 85.5641 74.6653 84.7534C75.2626 83.9428 76.2866 83.5374 77.7373 83.5374H84.0093C85.4173 83.5374 86.3986 83.9428 86.9533 84.7534C87.5506 85.5641 88.1053 86.5881 88.6173 87.8254L93.0333 98.2574C93.3746 99.1961 93.6306 100.177 93.8013 101.201C94.0146 102.183 94.1213 103.271 94.1213 104.465V118.097H93.4813ZM75.1133 121.553V112.593H86.4412V121.553C86.4412 122.364 86.6332 122.961 87.0173 123.345C87.4439 123.687 88.0839 123.857 88.9373 123.857H98.6013C99.4119 123.857 99.9879 123.687 100.329 123.345C100.713 122.961 100.905 122.364 100.905 121.553V104.657C100.905 103.377 100.692 101.905 100.265 100.241C99.8813 98.5774 99.2626 96.6361 98.4093 94.4174L92.8413 79.8894C92.5853 79.1641 92.1799 78.6308 91.6253 78.2894C91.1133 77.9481 90.4519 77.7774 89.6413 77.7774H72.4253C71.5719 77.7774 70.8679 77.9481 70.3133 78.2894C69.8013 78.6308 69.4173 79.1641 69.1613 79.8894L63.5933 94.4174C62.7399 96.6361 62.0999 98.5774 61.6733 100.241C61.2893 101.905 61.0973 103.377 61.0973 104.657V121.553C61.0973 122.364 61.2679 122.961 61.6093 123.345C61.9933 123.687 62.5906 123.857 63.4013 123.857H72.8093C73.6199 123.857 74.1959 123.687 74.5373 123.345C74.9213 122.961 75.1133 122.364 75.1133 121.553ZM66.5373 130.833C66.3666 131.004 66.0893 131.153 65.7053 131.281C65.3639 131.409 64.9799 131.473 64.5533 131.473H55.1453C54.1213 131.473 53.3746 131.239 52.9053 130.769C52.4359 130.3 52.2013 129.553 52.2013 128.529V111.633C52.2013 110.311 52.3933 108.817 52.7773 107.153C53.2039 105.447 53.8653 103.441 54.7613 101.137L60.2653 86.6734C60.3933 86.2894 60.5426 85.9694 60.7133 85.7134C60.9266 85.4148 61.1399 85.1588 61.3533 84.9454L61.4173 84.8814L69.6093 78.0334C69.9506 77.7348 70.3559 77.5214 70.8253 77.3934C71.2946 77.2228 71.8279 77.1374 72.4253 77.1374H89.6413C90.6226 77.1374 91.4119 77.3508 92.0093 77.7774C92.6493 78.1614 93.1186 78.7801 93.4173 79.6334L98.9853 94.1614C99.8813 96.4654 100.521 98.4708 100.905 100.177C101.332 101.841 101.545 103.335 101.545 104.657V121.553C101.545 122.108 101.46 122.577 101.289 122.961C101.161 123.345 100.948 123.665 100.649 123.921L92.3293 130.833C92.1586 131.004 91.8813 131.153 91.4973 131.281C91.1559 131.409 90.7719 131.473 90.3453 131.473H80.6813C79.6146 131.473 78.8253 131.217 78.3133 130.705C77.8013 130.236 77.5453 129.511 77.5453 128.529V120.209H75.7533V121.553C75.7533 122.108 75.6679 122.577 75.4973 122.961C75.3693 123.345 75.1559 123.665 74.8573 123.921L66.5373 130.833ZM137.71 99.2174C138.478 99.2174 139.033 99.0468 139.374 98.7054C139.716 98.3641 140.249 97.6388 140.974 96.5294L148.782 84.6254C149.038 84.1988 149.316 83.9214 149.614 83.7934C149.956 83.6228 150.297 83.5374 150.638 83.5374H151.726C152.324 83.5374 152.75 83.7081 153.006 84.0494C153.305 84.3481 153.454 84.8388 153.454 85.5214V118.097H152.814V85.5214C152.814 85.1801 152.729 84.8814 152.558 84.6254C152.43 84.3268 152.153 84.1774 151.726 84.1774H150.766C150.468 84.1774 150.212 84.2201 149.998 84.3054C149.785 84.3908 149.55 84.6468 149.294 85.0734L141.486 96.8494C140.718 98.0014 140.121 98.7908 139.694 99.2174C139.31 99.6441 138.649 99.8574 137.71 99.8574C136.772 99.8574 136.089 99.6441 135.662 99.2174C135.278 98.7908 134.702 98.0014 133.934 96.8494L126.126 85.0734C125.87 84.6468 125.614 84.3908 125.358 84.3054C125.145 84.2201 124.889 84.1774 124.59 84.1774H123.63C123.204 84.1774 122.926 84.3268 122.798 84.6254C122.67 84.8814 122.606 85.1801 122.606 85.5214V118.097H121.966V85.5214C121.966 84.8388 122.094 84.3481 122.35 84.0494C122.649 83.7081 123.076 83.5374 123.63 83.5374H124.718C125.06 83.5374 125.401 83.6228 125.742 83.7934C126.084 83.9214 126.382 84.1988 126.638 84.6254L134.446 96.5294C135.172 97.6388 135.705 98.3641 136.046 98.7054C136.388 99.0468 136.942 99.2174 137.71 99.2174ZM127.022 123.857C127.833 123.857 128.409 123.687 128.75 123.345C129.134 122.961 129.326 122.364 129.326 121.553V99.0254L133.102 106.001C133.486 106.727 133.934 107.26 134.446 107.601C135.001 107.9 135.684 108.049 136.494 108.049H139.054C139.865 108.049 140.526 107.9 141.038 107.601C141.593 107.26 142.062 106.727 142.446 106.001L146.222 99.0254V121.553C146.222 122.364 146.393 122.961 146.734 123.345C147.118 123.687 147.716 123.857 148.526 123.857H158.382C159.193 123.857 159.769 123.687 160.11 123.345C160.494 122.961 160.686 122.364 160.686 121.553V80.0814C160.686 79.2708 160.494 78.6948 160.11 78.3534C159.769 77.9694 159.193 77.7774 158.382 77.7774H148.014C147.332 77.7774 146.756 77.9268 146.286 78.2254C145.86 78.5241 145.454 79.0148 145.07 79.6974L139.374 90.1294C139.161 90.5134 138.969 90.7908 138.798 90.9614C138.67 91.1321 138.478 91.2174 138.222 91.2174H137.646C137.39 91.2174 137.177 91.1321 137.006 90.9614C136.878 90.7908 136.708 90.5134 136.494 90.1294L130.734 79.6974C130.35 79.0148 129.924 78.5241 129.454 78.2254C129.028 77.9268 128.473 77.7774 127.79 77.7774H117.486C116.676 77.7774 116.078 77.9694 115.694 78.3534C115.353 78.6948 115.182 79.2708 115.182 80.0814V121.553C115.182 122.364 115.353 122.961 115.694 123.345C116.078 123.687 116.676 123.857 117.486 123.857H127.022ZM129.07 123.921L120.75 130.833C120.58 131.004 120.302 131.153 119.918 131.281C119.577 131.409 119.193 131.473 118.766 131.473H109.23C108.206 131.473 107.46 131.239 106.99 130.769C106.521 130.3 106.286 129.553 106.286 128.529V87.0574C106.286 86.5028 106.35 86.0334 106.478 85.6494C106.649 85.2654 106.884 84.9454 107.182 84.6894L115.438 77.7134C115.652 77.5428 115.929 77.4148 116.27 77.3294C116.654 77.2014 117.06 77.1374 117.486 77.1374H127.79C128.601 77.1374 129.262 77.3081 129.774 77.6494C130.329 77.9908 130.841 78.5668 131.31 79.3774L135.662 87.3774L136.238 86.3534C136.409 86.0548 136.58 85.7774 136.75 85.5214C136.964 85.2228 137.177 84.9881 137.39 84.8174L145.646 77.9054C145.988 77.6494 146.329 77.4574 146.67 77.3294C147.054 77.2014 147.502 77.1374 148.014 77.1374H158.382C159.406 77.1374 160.153 77.3721 160.622 77.8414C161.092 78.3108 161.326 79.0574 161.326 80.0814V121.553C161.326 122.108 161.241 122.577 161.07 122.961C160.942 123.345 160.729 123.665 160.43 123.921L152.11 130.833C151.94 131.004 151.662 131.153 151.278 131.281C150.937 131.409 150.553 131.473 150.126 131.473H140.27C139.204 131.473 138.436 131.239 137.966 130.769C137.54 130.3 137.326 129.553 137.326 128.529V111.633L133.55 114.769C133.209 115.068 132.804 115.303 132.334 115.473C131.908 115.601 131.396 115.665 130.798 115.665H129.966V121.553C129.966 122.108 129.881 122.577 129.71 122.961C129.582 123.345 129.369 123.665 129.07 123.921ZM199.676 131.473H169.98C168.956 131.473 168.21 131.239 167.74 130.769C167.271 130.3 167.036 129.553 167.036 128.529V87.0574C167.036 86.5028 167.1 86.0334 167.228 85.6494C167.399 85.2654 167.634 84.9454 167.932 84.6894L176.188 77.7134C176.402 77.5428 176.679 77.4148 177.02 77.3294C177.404 77.2014 177.81 77.1374 178.236 77.1374H207.932C208.956 77.1374 209.703 77.3721 210.172 77.8414C210.642 78.3108 210.876 79.0574 210.876 80.0814V87.5694C210.876 88.1241 210.791 88.5934 210.62 88.9774C210.492 89.3614 210.279 89.6814 209.98 89.9374L204.476 94.4814C204.903 94.6948 205.202 95.0148 205.372 95.4414C205.586 95.8681 205.692 96.4228 205.692 97.1054V103.953C205.692 104.508 205.607 104.977 205.436 105.361C205.308 105.745 205.095 106.065 204.796 106.321L199.1 111.121H207.932C208.956 111.121 209.703 111.356 210.172 111.825C210.642 112.295 210.876 113.041 210.876 114.065V121.553C210.876 122.108 210.791 122.577 210.62 122.961C210.492 123.345 210.279 123.665 209.98 123.921L201.66 130.833C201.49 131.004 201.212 131.153 200.828 131.281C200.487 131.409 200.103 131.473 199.676 131.473ZM207.932 123.857C208.743 123.857 209.319 123.687 209.66 123.345C210.044 122.961 210.236 122.364 210.236 121.553V114.065C210.236 113.255 210.044 112.679 209.66 112.337C209.319 111.953 208.743 111.761 207.932 111.761H190.268V106.257H202.748C203.559 106.257 204.135 106.087 204.476 105.745C204.86 105.361 205.052 104.764 205.052 103.953V97.1054C205.052 96.2948 204.86 95.7188 204.476 95.3774C204.135 94.9934 203.559 94.8014 202.748 94.8014H190.268V89.8734H207.932C208.743 89.8734 209.319 89.7028 209.66 89.3614C210.044 88.9774 210.236 88.3801 210.236 87.5694V80.0814C210.236 79.2708 210.044 78.6948 209.66 78.3534C209.319 77.9694 208.743 77.7774 207.932 77.7774H178.236C177.426 77.7774 176.828 77.9694 176.444 78.3534C176.103 78.6948 175.932 79.2708 175.932 80.0814V121.553C175.932 122.364 176.103 122.961 176.444 123.345C176.828 123.687 177.426 123.857 178.236 123.857H207.932ZM204.476 117.457V118.097H182.908V83.5374H204.476V84.1774H183.548V100.241H199.292V100.881H183.548V117.457H204.476Z" fill="#00008F"/>
</svg>
