<svg xmlns="http://www.w3.org/2000/svg" width="124" height="34" viewBox="0 0 124 34" fill="none">
    <rect x="44.3848" y="9.23389" width="13.0586" height="34.823" rx="4" transform="rotate(-45 44.3848 9.23389)" fill="#00008F"/>
    <rect width="13.0586" height="34.823" rx="4" transform="matrix(-0.707107 -0.707107 -0.707107 0.707107 78.2422 9.23389)" fill="#00008F"/>
    <path d="M17.1981 5.88372C18.7648 3.37705 22.4154 3.37706 23.9821 5.88373L37.3552 27.2807C39.0203 29.9449 37.1049 33.4007 33.9632 33.4007H7.217C4.07525 33.4007 2.15988 29.9449 3.825 27.2807L17.1981 5.88372Z" fill="#00008F"/>
    <path d="M99.5585 5.88372C101.125 3.37705 104.776 3.37706 106.342 5.88373L119.716 27.2807C121.381 29.9449 119.465 33.4007 116.324 33.4007H89.5773C86.4356 33.4007 84.5202 29.9449 86.1853 27.2807L99.5585 5.88372Z" fill="#00008F"/>
</svg>