<svg width="213" height="38" viewBox="0 0 213 38" fill="none" xmlns="http://www.w3.org/2000/svg">
<path d="M19.2 34.808H2.912C2.4 34.808 2.02667 34.6907 1.792 34.456C1.55733 34.2213 1.44 33.848 1.44 33.336V12.6C1.44 12.3227 1.472 12.088 1.536 11.896C1.62133 11.704 1.73867 11.544 1.888 11.416L6.016 7.928C6.12267 7.84267 6.26133 7.77867 6.432 7.736C6.624 7.672 6.82667 7.64 7.04 7.64H12C12.512 7.64 12.8853 7.75733 13.12 7.992C13.3547 8.22667 13.472 8.6 13.472 9.112V22.136L13.536 22.072L17.664 18.584C17.7707 18.4987 17.9093 18.4347 18.08 18.392C18.272 18.328 18.4747 18.296 18.688 18.296H23.328C23.84 18.296 24.2133 18.4133 24.448 18.648C24.6827 18.8827 24.8 19.256 24.8 19.768V29.848C24.8 30.1253 24.7573 30.36 24.672 30.552C24.608 30.744 24.5013 30.904 24.352 31.032L20.192 34.488C20.1067 34.5733 19.968 34.648 19.776 34.712C19.6053 34.776 19.4133 34.808 19.2 34.808ZM23.328 31C23.7333 31 24.0213 30.9147 24.192 30.744C24.384 30.552 24.48 30.2533 24.48 29.848V19.768C24.48 19.3627 24.384 19.0747 24.192 18.904C24.0213 18.712 23.7333 18.616 23.328 18.616H18.688C18.2827 18.616 17.984 18.712 17.792 18.904C17.6213 19.0747 17.536 19.3627 17.536 19.768V24.952H13.152V9.112C13.152 8.70667 13.056 8.41867 12.864 8.248C12.6933 8.056 12.4053 7.96 12 7.96H7.04C6.63467 7.96 6.336 8.056 6.144 8.248C5.97333 8.41867 5.888 8.70667 5.888 9.112V29.848C5.888 30.2533 5.97333 30.552 6.144 30.744C6.336 30.9147 6.63467 31 7.04 31H23.328ZM9.376 28.12V10.84H9.696V27.8H20.832V21.496H21.152V28.12H9.376ZM41.4695 34.808H27.8375C27.3255 34.808 26.9522 34.6907 26.7175 34.456C26.4828 34.2213 26.3655 33.848 26.3655 33.336V29.528C26.3655 29.2507 26.3975 29.016 26.4615 28.824C26.5468 28.632 26.6642 28.472 26.8135 28.344L30.6855 25.08V17.944H27.8375C27.3255 17.944 26.9522 17.8267 26.7175 17.592C26.4828 17.3573 26.3655 16.984 26.3655 16.472V12.6C26.3655 12.3227 26.3975 12.088 26.4615 11.896C26.5468 11.704 26.6642 11.544 26.8135 11.416L30.9415 7.928C31.0482 7.84267 31.1868 7.77867 31.3575 7.736C31.5495 7.672 31.7522 7.64 31.9655 7.64H45.5975C46.1095 7.64 46.4828 7.75733 46.7175 7.992C46.9522 8.22667 47.0695 8.6 47.0695 9.112V12.984C47.0695 13.2613 47.0268 13.496 46.9415 13.688C46.8775 13.88 46.7708 14.04 46.6215 14.168L42.8135 17.368V24.568H45.5975C46.1095 24.568 46.4828 24.6853 46.7175 24.92C46.9522 25.1547 47.0695 25.528 47.0695 26.04V29.848C47.0695 30.1253 47.0268 30.36 46.9415 30.552C46.8775 30.744 46.7708 30.904 46.6215 31.032L42.4615 34.488C42.3762 34.5733 42.2375 34.648 42.0455 34.712C41.8748 34.776 41.6828 34.808 41.4695 34.808ZM31.9655 31H45.5975C46.0028 31 46.2908 30.9147 46.4615 30.744C46.6535 30.552 46.7495 30.2533 46.7495 29.848V26.04C46.7495 25.6347 46.6535 25.3467 46.4615 25.176C46.2908 24.984 46.0028 24.888 45.5975 24.888H42.4935V14.136H45.5975C46.0028 14.136 46.2908 14.0507 46.4615 13.88C46.6535 13.688 46.7495 13.3893 46.7495 12.984V9.112C46.7495 8.70667 46.6535 8.41867 46.4615 8.248C46.2908 8.056 46.0028 7.96 45.5975 7.96H31.9655C31.5602 7.96 31.2615 8.056 31.0695 8.248C30.8988 8.41867 30.8135 8.70667 30.8135 9.112V12.984C30.8135 13.3893 30.8988 13.688 31.0695 13.88C31.2615 14.0507 31.5602 14.136 31.9655 14.136H35.1335V24.888H31.9655C31.5602 24.888 31.2615 24.984 31.0695 25.176C30.8988 25.3467 30.8135 25.6347 30.8135 26.04V29.848C30.8135 30.2533 30.8988 30.552 31.0695 30.744C31.2615 30.9147 31.5602 31 31.9655 31ZM43.8695 28.12H33.6935V27.8H38.6535V11.16H33.6935V10.84H43.8695V11.16H38.9735V27.8H43.8695V28.12ZM55.872 34.808H50.912C50.4 34.808 50.0267 34.6907 49.792 34.456C49.5573 34.2213 49.44 33.848 49.44 33.336V12.6C49.44 12.3227 49.472 12.088 49.536 11.896C49.6213 11.704 49.7387 11.544 49.888 11.416L54.016 7.928C54.1227 7.84267 54.2613 7.77867 54.432 7.736C54.624 7.672 54.8267 7.64 55.04 7.64H69.312C69.824 7.64 70.1973 7.75733 70.432 7.992C70.6667 8.22667 70.784 8.6 70.784 9.112V12.92C70.784 13.1973 70.7413 13.432 70.656 13.624C70.592 13.816 70.4853 13.976 70.336 14.104L66.752 17.08C67.2427 17.08 67.6053 17.1973 67.84 17.432C68.0747 17.6667 68.192 18.04 68.192 18.552V22.392C68.192 22.6693 68.1493 22.904 68.064 23.096C68 23.288 67.8933 23.448 67.744 23.576L63.584 27.032C63.4987 27.1173 63.36 27.192 63.168 27.256C62.9973 27.32 62.8053 27.352 62.592 27.352H61.472V29.848C61.472 30.1253 61.4293 30.36 61.344 30.552C61.28 30.744 61.1733 30.904 61.024 31.032L56.864 34.488C56.7787 34.5733 56.64 34.648 56.448 34.712C56.2773 34.776 56.0853 34.808 55.872 34.808ZM60 31C60.4053 31 60.6933 30.9147 60.864 30.744C61.056 30.552 61.152 30.2533 61.152 29.848V23.544H66.72C67.1253 23.544 67.4133 23.4587 67.584 23.288C67.776 23.096 67.872 22.7973 67.872 22.392V18.552C67.872 18.1467 67.776 17.8587 67.584 17.688C67.4133 17.496 67.1253 17.4 66.72 17.4H61.152V14.072H69.312C69.7173 14.072 70.0053 13.9867 70.176 13.816C70.368 13.624 70.464 13.3253 70.464 12.92V9.112C70.464 8.70667 70.368 8.41867 70.176 8.248C70.0053 8.056 69.7173 7.96 69.312 7.96H55.04C54.6347 7.96 54.336 8.056 54.144 8.248C53.9733 8.41867 53.888 8.70667 53.888 9.112V29.848C53.888 30.2533 53.9733 30.552 54.144 30.744C54.336 30.9147 54.6347 31 55.04 31H60ZM57.376 28.12V10.84H67.584V11.16H57.696V20.312H64.992V20.632H57.696V28.12H57.376ZM88.7288 34.808H73.8808C73.3688 34.808 72.9954 34.6907 72.7608 34.456C72.5261 34.2213 72.4088 33.848 72.4088 33.336V12.6C72.4088 12.3227 72.4408 12.088 72.5048 11.896C72.5901 11.704 72.7074 11.544 72.8568 11.416L76.9848 7.928C77.0914 7.84267 77.2301 7.77867 77.4008 7.736C77.5928 7.672 77.7954 7.64 78.0088 7.64H92.8568C93.3688 7.64 93.7421 7.75733 93.9768 7.992C94.2114 8.22667 94.3288 8.6 94.3288 9.112V12.856C94.3288 13.1333 94.2861 13.368 94.2008 13.56C94.1368 13.752 94.0301 13.912 93.8808 14.04L91.1288 16.312C91.3421 16.4187 91.4914 16.5787 91.5768 16.792C91.6834 17.0053 91.7368 17.2827 91.7368 17.624V21.048C91.7368 21.3253 91.6941 21.56 91.6088 21.752C91.5448 21.944 91.4381 22.104 91.2888 22.232L88.4408 24.632H92.8568C93.3688 24.632 93.7421 24.7493 93.9768 24.984C94.2114 25.2187 94.3288 25.592 94.3288 26.104V29.848C94.3288 30.1253 94.2861 30.36 94.2008 30.552C94.1368 30.744 94.0301 30.904 93.8808 31.032L89.7208 34.488C89.6354 34.5733 89.4968 34.648 89.3048 34.712C89.1341 34.776 88.9421 34.808 88.7288 34.808ZM92.8568 31C93.2621 31 93.5501 30.9147 93.7208 30.744C93.9128 30.552 94.0088 30.2533 94.0088 29.848V26.104C94.0088 25.6987 93.9128 25.4107 93.7208 25.24C93.5501 25.048 93.2621 24.952 92.8568 24.952H84.0248V22.2H90.2648C90.6701 22.2 90.9581 22.1147 91.1288 21.944C91.3208 21.752 91.4168 21.4533 91.4168 21.048V17.624C91.4168 17.2187 91.3208 16.9307 91.1288 16.76C90.9581 16.568 90.6701 16.472 90.2648 16.472H84.0248V14.008H92.8568C93.2621 14.008 93.5501 13.9227 93.7208 13.752C93.9128 13.56 94.0088 13.2613 94.0088 12.856V9.112C94.0088 8.70667 93.9128 8.41867 93.7208 8.248C93.5501 8.056 93.2621 7.96 92.8568 7.96H78.0088C77.6034 7.96 77.3048 8.056 77.1128 8.248C76.9421 8.41867 76.8568 8.70667 76.8568 9.112V29.848C76.8568 30.2533 76.9421 30.552 77.1128 30.744C77.3048 30.9147 77.6034 31 78.0088 31H92.8568ZM91.1288 27.8V28.12H80.3448V10.84H91.1288V11.16H80.6648V19.192H88.5368V19.512H80.6648V27.8H91.1288ZM124.86 34.808H114.78C111.985 34.808 109.916 34.0827 108.572 32.632C107.249 31.1813 106.588 29.304 106.588 27V17.976C106.588 16.8027 106.759 15.7893 107.1 14.936C107.441 14.0827 107.943 13.368 108.604 12.792L112.732 9.304C113.393 8.74933 114.236 8.33333 115.26 8.056C116.305 7.77867 117.521 7.64 118.908 7.64H126.908C127.42 7.64 127.793 7.75733 128.028 7.992C128.263 8.22667 128.38 8.6 128.38 9.112V12.984C128.38 13.2613 128.337 13.496 128.252 13.688C128.188 13.88 128.081 14.04 127.932 14.168L123.772 17.624C123.687 17.7093 123.548 17.784 123.356 17.848C123.185 17.912 122.993 17.944 122.78 17.944H118.62V22.552C118.641 22.5093 118.673 22.4667 118.716 22.424C118.78 22.36 118.833 22.3067 118.876 22.264L123.004 18.776C123.111 18.6907 123.249 18.6267 123.42 18.584C123.612 18.52 123.815 18.488 124.028 18.488H128.988C129.5 18.488 129.873 18.6053 130.108 18.84C130.343 19.0747 130.46 19.448 130.46 19.96V29.848C130.46 30.1253 130.417 30.36 130.332 30.552C130.268 30.744 130.161 30.904 130.012 31.032L125.852 34.488C125.767 34.5733 125.628 34.648 125.436 34.712C125.265 34.776 125.073 34.808 124.86 34.808ZM128.988 31C129.393 31 129.681 30.9147 129.852 30.744C130.044 30.552 130.14 30.2533 130.14 29.848V19.96C130.14 19.5547 130.044 19.2667 129.852 19.096C129.681 18.904 129.393 18.808 128.988 18.808H124.028C123.623 18.808 123.324 18.904 123.132 19.096C122.961 19.2667 122.876 19.5547 122.876 19.96V24.952H119.772C119.281 24.952 118.908 24.824 118.652 24.568C118.417 24.312 118.3 23.9173 118.3 23.384V15.736C118.3 15.2027 118.46 14.808 118.78 14.552C119.1 14.2747 119.591 14.136 120.252 14.136H126.908C127.313 14.136 127.601 14.0507 127.772 13.88C127.964 13.688 128.06 13.3893 128.06 12.984V9.112C128.06 8.70667 127.964 8.41867 127.772 8.248C127.601 8.056 127.313 7.96 126.908 7.96H118.908C116.241 7.96 114.257 8.49333 112.956 9.56C111.676 10.6267 111.036 12.2693 111.036 14.488V24.472C111.036 26.6907 111.676 28.3333 112.956 29.4C114.257 30.4667 116.241 31 118.908 31H128.988ZM120.284 28.12C119.111 28.12 118.151 28.0453 117.404 27.896C116.657 27.7467 116.071 27.512 115.644 27.192C115.217 26.8507 114.919 26.424 114.748 25.912C114.599 25.3787 114.524 24.7387 114.524 23.992V15.032C114.524 13.5173 114.865 12.44 115.548 11.8C116.231 11.16 117.596 10.84 119.644 10.84H125.18V11.16H119.644C117.767 11.16 116.497 11.4587 115.836 12.056C115.175 12.632 114.844 13.624 114.844 15.032V23.992C114.844 25.3787 115.207 26.36 115.932 26.936C116.679 27.512 118.129 27.8 120.284 27.8H126.332V21.688H126.652V28.12H120.284ZM140.464 21.304V22.296H152.944V21.304C152.944 20.728 152.89 20.1947 152.784 19.704C152.698 19.2133 152.581 18.7547 152.432 18.328L150.224 13.112C149.989 12.5573 149.744 12.0987 149.488 11.736C149.232 11.352 148.805 11.16 148.208 11.16H145.072C144.432 11.16 143.984 11.352 143.728 11.736C143.472 12.0987 143.237 12.5467 143.024 13.08L140.976 18.328C140.826 18.7547 140.698 19.2133 140.592 19.704C140.506 20.1947 140.464 20.728 140.464 21.304ZM145.584 14.68C145.669 14.488 145.754 14.3493 145.84 14.264C145.946 14.1787 146.064 14.136 146.192 14.136H146.992C147.12 14.136 147.226 14.1787 147.312 14.264C147.418 14.3493 147.514 14.488 147.6 14.68L149.104 19.544H144.08L145.584 14.68ZM152.944 28.12V22.616H140.464V28.12H140.144V21.304C140.144 20.7067 140.186 20.1627 140.272 19.672C140.378 19.16 140.517 18.6693 140.688 18.2L142.736 12.952C142.97 12.3547 143.237 11.8533 143.536 11.448C143.834 11.0427 144.346 10.84 145.072 10.84H148.208C148.912 10.84 149.402 11.0427 149.68 11.448C149.978 11.8533 150.256 12.3653 150.512 12.984L152.72 18.2C152.89 18.6693 153.018 19.16 153.104 19.672C153.21 20.1627 153.264 20.7067 153.264 21.304V28.12H152.944ZM143.76 29.848V25.368H149.424V29.848C149.424 30.2533 149.52 30.552 149.712 30.744C149.925 30.9147 150.245 31 150.672 31H155.504C155.909 31 156.197 30.9147 156.368 30.744C156.56 30.552 156.656 30.2533 156.656 29.848V21.4C156.656 20.76 156.549 20.024 156.336 19.192C156.144 18.36 155.834 17.3893 155.408 16.28L152.624 9.016C152.496 8.65333 152.293 8.38667 152.016 8.216C151.76 8.04533 151.429 7.96 151.024 7.96H142.416C141.989 7.96 141.637 8.04533 141.36 8.216C141.104 8.38667 140.912 8.65333 140.784 9.016L138 16.28C137.573 17.3893 137.253 18.36 137.04 19.192C136.848 20.024 136.752 20.76 136.752 21.4V29.848C136.752 30.2533 136.837 30.552 137.008 30.744C137.2 30.9147 137.498 31 137.904 31H142.608C143.013 31 143.301 30.9147 143.472 30.744C143.664 30.552 143.76 30.2533 143.76 29.848ZM139.472 34.488C139.386 34.5733 139.248 34.648 139.056 34.712C138.885 34.776 138.693 34.808 138.48 34.808H133.776C133.264 34.808 132.89 34.6907 132.656 34.456C132.421 34.2213 132.304 33.848 132.304 33.336V24.888C132.304 24.2267 132.4 23.48 132.592 22.648C132.805 21.7947 133.136 20.792 133.584 19.64L136.336 12.408C136.4 12.216 136.474 12.056 136.56 11.928C136.666 11.7787 136.773 11.6507 136.88 11.544L136.912 11.512L141.008 8.088C141.178 7.93867 141.381 7.832 141.616 7.768C141.85 7.68267 142.117 7.64 142.416 7.64H151.024C151.514 7.64 151.909 7.74667 152.208 7.96C152.528 8.152 152.762 8.46133 152.912 8.888L155.696 16.152C156.144 17.304 156.464 18.3067 156.656 19.16C156.869 19.992 156.976 20.7387 156.976 21.4V29.848C156.976 30.1253 156.933 30.36 156.848 30.552C156.784 30.744 156.677 30.904 156.528 31.032L152.368 34.488C152.282 34.5733 152.144 34.648 151.952 34.712C151.781 34.776 151.589 34.808 151.376 34.808H146.544C146.01 34.808 145.616 34.68 145.36 34.424C145.104 34.1893 144.976 33.8267 144.976 33.336V29.176H144.08V29.848C144.08 30.1253 144.037 30.36 143.952 30.552C143.888 30.744 143.781 30.904 143.632 31.032L139.472 34.488ZM175.058 18.68C175.442 18.68 175.72 18.5947 175.89 18.424C176.061 18.2533 176.328 17.8907 176.69 17.336L180.594 11.384C180.722 11.1707 180.861 11.032 181.01 10.968C181.181 10.8827 181.352 10.84 181.522 10.84H182.066C182.365 10.84 182.578 10.9253 182.706 11.096C182.856 11.2453 182.93 11.4907 182.93 11.832V28.12H182.61V11.832C182.61 11.6613 182.568 11.512 182.482 11.384C182.418 11.2347 182.28 11.16 182.066 11.16H181.586C181.437 11.16 181.309 11.1813 181.202 11.224C181.096 11.2667 180.978 11.3947 180.85 11.608L176.946 17.496C176.562 18.072 176.264 18.4667 176.05 18.68C175.858 18.8933 175.528 19 175.058 19C174.589 19 174.248 18.8933 174.034 18.68C173.842 18.4667 173.554 18.072 173.17 17.496L169.266 11.608C169.138 11.3947 169.01 11.2667 168.882 11.224C168.776 11.1813 168.648 11.16 168.498 11.16H168.018C167.805 11.16 167.666 11.2347 167.602 11.384C167.538 11.512 167.506 11.6613 167.506 11.832V28.12H167.186V11.832C167.186 11.4907 167.25 11.2453 167.378 11.096C167.528 10.9253 167.741 10.84 168.018 10.84H168.562C168.733 10.84 168.904 10.8827 169.074 10.968C169.245 11.032 169.394 11.1707 169.522 11.384L173.426 17.336C173.789 17.8907 174.056 18.2533 174.226 18.424C174.397 18.5947 174.674 18.68 175.058 18.68ZM169.714 31C170.12 31 170.408 30.9147 170.578 30.744C170.77 30.552 170.866 30.2533 170.866 29.848V18.584L172.754 22.072C172.946 22.4347 173.17 22.7013 173.426 22.872C173.704 23.0213 174.045 23.096 174.45 23.096H175.73C176.136 23.096 176.466 23.0213 176.722 22.872C177 22.7013 177.234 22.4347 177.426 22.072L179.314 18.584V29.848C179.314 30.2533 179.4 30.552 179.57 30.744C179.762 30.9147 180.061 31 180.466 31H185.394C185.8 31 186.088 30.9147 186.258 30.744C186.45 30.552 186.546 30.2533 186.546 29.848V9.112C186.546 8.70667 186.45 8.41867 186.258 8.248C186.088 8.056 185.8 7.96 185.394 7.96H180.21C179.869 7.96 179.581 8.03467 179.346 8.184C179.133 8.33333 178.93 8.57867 178.738 8.92L175.89 14.136C175.784 14.328 175.688 14.4667 175.602 14.552C175.538 14.6373 175.442 14.68 175.314 14.68H175.026C174.898 14.68 174.792 14.6373 174.706 14.552C174.642 14.4667 174.557 14.328 174.45 14.136L171.57 8.92C171.378 8.57867 171.165 8.33333 170.93 8.184C170.717 8.03467 170.44 7.96 170.098 7.96H164.946C164.541 7.96 164.242 8.056 164.05 8.248C163.88 8.41867 163.794 8.70667 163.794 9.112V29.848C163.794 30.2533 163.88 30.552 164.05 30.744C164.242 30.9147 164.541 31 164.946 31H169.714ZM170.738 31.032L166.578 34.488C166.493 34.5733 166.354 34.648 166.162 34.712C165.992 34.776 165.8 34.808 165.586 34.808H160.818C160.306 34.808 159.933 34.6907 159.698 34.456C159.464 34.2213 159.346 33.848 159.346 33.336V12.6C159.346 12.3227 159.378 12.088 159.442 11.896C159.528 11.704 159.645 11.544 159.794 11.416L163.922 7.928C164.029 7.84267 164.168 7.77867 164.338 7.736C164.53 7.672 164.733 7.64 164.946 7.64H170.098C170.504 7.64 170.834 7.72533 171.09 7.896C171.368 8.06667 171.624 8.35467 171.858 8.76L174.034 12.76L174.322 12.248C174.408 12.0987 174.493 11.96 174.578 11.832C174.685 11.6827 174.792 11.5653 174.898 11.48L179.026 8.024C179.197 7.896 179.368 7.8 179.538 7.736C179.73 7.672 179.954 7.64 180.21 7.64H185.394C185.906 7.64 186.28 7.75733 186.514 7.992C186.749 8.22667 186.866 8.6 186.866 9.112V29.848C186.866 30.1253 186.824 30.36 186.738 30.552C186.674 30.744 186.568 30.904 186.418 31.032L182.258 34.488C182.173 34.5733 182.034 34.648 181.842 34.712C181.672 34.776 181.48 34.808 181.266 34.808H176.338C175.805 34.808 175.421 34.6907 175.186 34.456C174.973 34.2213 174.866 33.848 174.866 33.336V24.888L172.978 26.456C172.808 26.6053 172.605 26.7227 172.37 26.808C172.157 26.872 171.901 26.904 171.602 26.904H171.186V29.848C171.186 30.1253 171.144 30.36 171.058 30.552C170.994 30.744 170.888 30.904 170.738 31.032ZM206.041 34.808H191.193C190.681 34.808 190.308 34.6907 190.073 34.456C189.839 34.2213 189.721 33.848 189.721 33.336V12.6C189.721 12.3227 189.753 12.088 189.817 11.896C189.903 11.704 190.02 11.544 190.169 11.416L194.297 7.928C194.404 7.84267 194.543 7.77867 194.713 7.736C194.905 7.672 195.108 7.64 195.321 7.64H210.169C210.681 7.64 211.055 7.75733 211.289 7.992C211.524 8.22667 211.641 8.6 211.641 9.112V12.856C211.641 13.1333 211.599 13.368 211.513 13.56C211.449 13.752 211.343 13.912 211.193 14.04L208.441 16.312C208.655 16.4187 208.804 16.5787 208.889 16.792C208.996 17.0053 209.049 17.2827 209.049 17.624V21.048C209.049 21.3253 209.007 21.56 208.921 21.752C208.857 21.944 208.751 22.104 208.601 22.232L205.753 24.632H210.169C210.681 24.632 211.055 24.7493 211.289 24.984C211.524 25.2187 211.641 25.592 211.641 26.104V29.848C211.641 30.1253 211.599 30.36 211.513 30.552C211.449 30.744 211.343 30.904 211.193 31.032L207.033 34.488C206.948 34.5733 206.809 34.648 206.617 34.712C206.447 34.776 206.255 34.808 206.041 34.808ZM210.169 31C210.575 31 210.863 30.9147 211.033 30.744C211.225 30.552 211.321 30.2533 211.321 29.848V26.104C211.321 25.6987 211.225 25.4107 211.033 25.24C210.863 25.048 210.575 24.952 210.169 24.952H201.337V22.2H207.577C207.983 22.2 208.271 22.1147 208.441 21.944C208.633 21.752 208.729 21.4533 208.729 21.048V17.624C208.729 17.2187 208.633 16.9307 208.441 16.76C208.271 16.568 207.983 16.472 207.577 16.472H201.337V14.008H210.169C210.575 14.008 210.863 13.9227 211.033 13.752C211.225 13.56 211.321 13.2613 211.321 12.856V9.112C211.321 8.70667 211.225 8.41867 211.033 8.248C210.863 8.056 210.575 7.96 210.169 7.96H195.321C194.916 7.96 194.617 8.056 194.425 8.248C194.255 8.41867 194.169 8.70667 194.169 9.112V29.848C194.169 30.2533 194.255 30.552 194.425 30.744C194.617 30.9147 194.916 31 195.321 31H210.169ZM208.441 27.8V28.12H197.657V10.84H208.441V11.16H197.977V19.192H205.849V19.512H197.977V27.8H208.441Z" fill="#00008F"/>
</svg>
