<svg width="81" height="81" viewBox="0 0 81 81" fill="none" xmlns="http://www.w3.org/2000/svg">
<path d="M23.8335 17.524H27.1668V24.1907H23.8335V27.524H17.1668V24.1907H13.8335V17.524H17.1668V14.1907H23.8335V17.524Z" fill="white"/>
<path d="M43.8335 7.52401H47.1668V14.1907H43.8335V17.524H37.1668V14.1907H33.8335V7.52401H37.1668V4.19067H43.8335V7.52401Z" fill="white"/>
<path d="M13.8335 47.524H7.16683V44.1907H3.8335V37.524H7.16683V34.1907H13.8335V37.524H17.1668V44.1907H13.8335V47.524Z" fill="white"/>
<path d="M23.8335 57.524H27.1668V64.1907H23.8335V67.524H17.1668V64.1907H13.8335V57.524H17.1668V54.1907H23.8335V57.524Z" fill="white"/>
<path d="M77.1668 37.524V44.1907H73.8335V47.524H67.1668V44.1907H63.8335V37.524H67.1668V34.1907H73.8335V37.524H77.1668Z" fill="white"/>
<path d="M63.8335 57.524H67.1668V64.1907H63.8335V67.524H57.1668V64.1907H53.8335V57.524H57.1668V54.1907H63.8335V57.524Z" fill="white"/>
<path d="M43.8335 67.524H47.1668V74.1907H43.8335V77.524H37.1668V74.1907H33.8335V67.524H37.1668V64.1907H43.8335V67.524Z" fill="white"/>
</svg>
